<svg xmlns="http://www.w3.org/2000/svg" xmlns:xlink="http://www.w3.org/1999/xlink" viewBox="0,0,256,256" width="50px" height="50px" fill-rule="nonzero"><g fill="#339af0" fill-rule="nonzero" stroke="none" stroke-width="1" stroke-linecap="butt" stroke-linejoin="miter" stroke-miterlimit="10" stroke-dasharray="" stroke-dashoffset="0" font-family="none" font-weight="none" font-size="none" text-anchor="none" style="mix-blend-mode: normal"><g transform="scale(5.12,5.12)"><path d="M13,4c-4.962,0 -9,4.037 -9,9v24c0,4.963 4.038,9 9,9h24c0.338,0 0.671,-0.02159 1,-0.05859v-41.88281c-0.329,-0.037 -0.662,-0.05859 -1,-0.05859zM40,4.52539v9.47461h6v-1c0,-3.91 -2.51,-7.23561 -6,-8.47461zM22,12c7.168,0 13,5.832 13,13c0,7.168 -5.832,13 -13,13c-7.168,0 -13,-5.832 -13,-13c0,-7.168 5.832,-13 13,-13zM22,14c-6.065,0 -11,4.935 -11,11c0,2.814 1.07141,5.37722 2.81641,7.32422c2.073,-2.099 5.03559,-3.32422 8.18359,-3.32422c3.14,0 6.1135,1.22231 8.1875,3.32031c1.742,-1.947 2.8125,-4.50831 2.8125,-7.32031c0,-6.065 -4.935,-11 -11,-11zM40,16v8h6v-8zM22,18.5c2.481,0 4.5,2.019 4.5,4.5c0,2.481 -2.019,4.5 -4.5,4.5c-2.481,0 -4.5,-2.019 -4.5,-4.5c0,-2.481 2.019,-4.5 4.5,-4.5zM40,26v8h6v-8zM40,36v9.47461c3.49,-1.239 6,-4.56461 6,-8.47461v-1z"></path></g></g></svg>