<svg xmlns="http://www.w3.org/2000/svg" xmlns:xlink="http://www.w3.org/1999/xlink" width="52" height="52" viewBox="0 0 52 52"><defs><filter id="a" x="0" y="0" width="52" height="52" filterUnits="userSpaceOnUse"><feOffset dy="1" input="SourceAlpha"/><feGaussianBlur stdDeviation="2" result="b"/><feFlood flood-opacity="0.251"/><feComposite operator="in" in2="b"/><feComposite in="SourceGraphic"/></filter></defs><g transform="translate(6 5)"><g transform="matrix(1, 0, 0, 1, -6, -5)" filter="url(#a)"><g transform="translate(6 5)" fill="#fff" stroke="#ecebeb" stroke-miterlimit="10" stroke-width="1"><rect width="40" height="40" rx="20" stroke="none"/><rect x="0.5" y="0.5" width="39" height="39" rx="19.5" fill="none"/></g></g><g transform="translate(8 8)"><path d="M18,17.971H0V13.728L13.435.293a1,1,0,0,1,1.414,0l2.829,2.83a1,1,0,0,1,0,1.414L6.243,15.971H18v2ZM11.314,5.242h0L2,14.557v1.414H3.414l9.314-9.314L11.314,5.243Zm2.828-2.828h0L12.728,3.829l1.414,1.414,1.414-1.414L14.142,2.415Z" transform="translate(3 3.029)" fill="#005fff"/></g></g></svg>