<svg xmlns="http://www.w3.org/2000/svg" width="91.791" height="92.293" viewBox="0 0 91.791 92.293"><defs><style>.a{fill:none;}.b{fill:#fff;fill-rule:evenodd;}</style></defs><rect class="a" width="91.791" height="92.293"/><path class="b" d="M792.381,5171.28A40.621,40.621,0,1,1,751.76,5211.9,40.621,40.621,0,0,1,792.381,5171.28Zm0,4.519a36.1,36.1,0,1,1-36.1,36.1A36.1,36.1,0,0,1,792.381,5175.8Z" transform="translate(-746.86 -5166.476)"/><g transform="translate(24.351 23.776)"><path class="b" d="M1098.533,5514.941l37.584-10.07,0,2.663a6.343,6.343,0,0,1-4.753,6.19l-37.58,10.072,0-2.655A6.344,6.344,0,0,1,1098.533,5514.941Z" transform="translate(-1093.78 -5504.871)"/><path class="b" d="M1098.533,5729.191l37.584-10.07,0,2.663a6.343,6.343,0,0,1-4.753,6.19l-37.58,10.072,0-2.654A6.345,6.345,0,0,1,1098.533,5729.191Z" transform="translate(-1093.78 -5706.936)"/><path class="b" d="M1098.533,5943.441l37.584-10.07,0,2.662a6.342,6.342,0,0,1-4.753,6.19l-37.58,10.073,0-2.655A6.343,6.343,0,0,1,1098.533,5943.441Z" transform="translate(-1093.78 -5909)"/></g></svg>