<svg xmlns="http://www.w3.org/2000/svg" width="18" height="18" viewBox="0 0 18 18"><defs><style>.a{fill:none;}.b{fill:rgba(0,0,0,0.4);}</style></defs><path class="a" d="M0,0H18V18H0Z"/><path class="b" d="M14.725,11.854l-1.834-.209a1.437,1.437,0,0,0-1.184.412l-1.328,1.328A10.863,10.863,0,0,1,5.621,8.627L6.957,7.291a1.437,1.437,0,0,0,.412-1.184L7.159,4.288A1.445,1.445,0,0,0,5.722,3.01H4.473A1.433,1.433,0,0,0,3.029,4.5,12.268,12.268,0,0,0,14.5,15.977,1.433,1.433,0,0,0,16,14.533V13.284A1.431,1.431,0,0,0,14.725,11.854Z" transform="translate(-0.504 -0.502)"/></svg>