<svg xmlns="http://www.w3.org/2000/svg" width="18" height="18" viewBox="0 0 18 18"><defs><style>.a{fill:none;}.b{fill:rgba(0,0,0,0.4);}</style></defs><path class="a" d="M0,0H18V18H0Z"/><path class="b" d="M9.821,8.647A4.663,4.663,0,0,0,4.612,6.079,4.285,4.285,0,0,0,1.106,9.11c-.621,2.562,1.605,4.832,4.437,4.832a4.538,4.538,0,0,0,4.278-2.648h3.294v1.324a1.433,1.433,0,0,0,1.514,1.324,1.433,1.433,0,0,0,1.514-1.324V11.294a1.433,1.433,0,0,0,1.514-1.324,1.433,1.433,0,0,0-1.514-1.324ZM5.543,11.294A1.433,1.433,0,0,1,4.029,9.971,1.433,1.433,0,0,1,5.543,8.647,1.433,1.433,0,0,1,7.058,9.971,1.433,1.433,0,0,1,5.543,11.294Z" transform="translate(-0.329 -0.971)"/></svg>