<svg xmlns="http://www.w3.org/2000/svg" width="24" height="24" viewBox="0 0 24 24"><defs><style>.a{fill:rgba(0,0,0,0);}.b{fill:none;}</style></defs><path class="a" d="M16.364,17.779l-5.171-5.172a7,7,0,1,1,1.414-1.414l5.172,5.171a1,1,0,0,1-1.415,1.415Z" transform="translate(3 3)"/><rect class="b" width="24" height="24"/><path d="M18.9,20.314h0l-2.827-2.828,1.414-1.414L20.314,18.9,18.9,20.313ZM9,18a9,9,0,1,1,9-9A9.01,9.01,0,0,1,9,18ZM9,2a7,7,0,1,0,7,7A7.008,7.008,0,0,0,9,2Z" transform="translate(2 2)"/></svg>